# xmcd
#
# Track frame offsets:
#        150
#        20528
#        40243
#        51285
#        60885
#        81278
#        102615
#        120318
#        139218
#        155768
#        176500
#        194573
#        213360
#        234045
#        256848
#
# Disc length: 3704 seconds
#
# Revision: 0
# Processed by: cddbd v1.5.1PL0 Copyright (c) Steve Scherf et al.
# Submitted via: ExactAudioCopy v0.95a5
#
DISCID=c90e760f
DTITLE=Laila France - Trance Coctail Airlines
DYEAR=1997
DGENRE=Techno
TTITLE0=Trashy Like TV
TTITLE1=Trance Coctail Airlines
TTITLE2=Wonderhood
TTITLE3=Japanese Especially
TTITLE4=The Pink Song
TTITLE5=David Hamilton
TTITLE6=Synthisizer Wizard
TTITLE7=First Love Blood
TTITLE8=Orgonon
TTITLE9=Bilitis
TTITLE10=The Sensations of Orgasm
TTITLE11=lili la tigresse
TTITLE12=Trance Coctail Airlines(Darkcore Vocals)
TTITLE13=Trance Coctail Airlines(Infinite mix)
TTITLE14=Trance Coctail Airlines(Heavy Pantunes mix)
EXTD=
EXTT0=
EXTT1=
EXTT2=
EXTT3=
EXTT4=
EXTT5=
EXTT6=
EXTT7=
EXTT8=
EXTT9=
EXTT10=
EXTT11=
EXTT12=
EXTT13=
EXTT14=
PLAYORDER=
